        <svg id="svg-draft"
                              style="border: '1px solid transparent'"
                         width="100%" height="100%" errmsg=""
             viewBox="-130 106 760 341"
             version="1.1" baseProfile="full" xmlns="http://www.w3.org/2000/svg" xmlns:xlink="http://www.w3.org/1999/xlink" xmlns:ev="http://www.w3.org/2001/xml-events">
            <title>500 x 120 x 18</title>
                        <defs>
                                                                                <clipPath id="svg-side-1-contour-clip">
                    <use xlink:href="#svg-side-1-contour"/>
                </clipPath>
                <clipPath id="svg-side-2-contour-clip">
                    <use xlink:href="#svg-side-2-contour"/>
                </clipPath>
                <clipPath id="svg-side-3-contour-clip">
                    <use xlink:href="#svg-side-3-contour"/>
                </clipPath>
                <clipPath id="svg-side-4-contour-clip">
                    <use xlink:href="#svg-side-4-contour"/>
                </clipPath>
                <clipPath id="svg-side-5-contour-clip">
                    <use xlink:href="#svg-side-5-contour"/>
                </clipPath>
                <clipPath id="svg-side-6-contour-clip">
                    <use xlink:href="#svg-side-1-contour"/>
                </clipPath>
                <clipPath id="svg-side-7-contour-clip">
                    <use xlink:href="#svg-side-1-contour"/>
                </clipPath>
                <clipPath id="svg-side-8-contour-clip">
                    <use xlink:href="#svg-side-1-contour"/>
                </clipPath>
                <clipPath id="svg-side-9-contour-clip">
                    <use xlink:href="#svg-side-1-contour"/>
                </clipPath>
                <clipPath id="svg-side-10-contour-clip">
                    <use xlink:href="#svg-side-1-contour"/>
                </clipPath>
                <marker id="arrowlessDimPoint1" viewBox="-2 -12 29 24" markerWidth="44" markerHeight="36" orient="auto" markerUnits="userSpaceOnUse">
                    <path stroke="black" d="M0,-10 L0,10"/>
                </marker>
                <marker id="arrowlessDimPoint2" viewBox="-27 -12 29 24" markerWidth="44" markerHeight="36" orient="auto" markerUnits="userSpaceOnUse">
                    <path stroke="black" d="M0,-10 L0,10"/>
                </marker>
                <marker id="DimPoint1" viewBox="-2 -12 29 24" markerWidth="44" markerHeight="36" orient="auto" markerUnits="userSpaceOnUse">
                    <path stroke="black" d="M0,0 L20,-4 16,0 20,4 z M0,-10 L0,10 M0,0 L27,0"/>
                </marker>
                <marker id="DimPoint2" viewBox="-27 -12 29 24" markerWidth="44" markerHeight="36" orient="auto" markerUnits="userSpaceOnUse">
                    <path stroke="black" d="M0,0 L-20,-4 -16,0 -20,4 z M0,-10 L0,10 M0,0 L-27,0"/>
                </marker>
                <marker id="DimPointRed" viewBox="-27 -12 29 24" markerWidth="44" markerHeight="36" orient="auto" markerUnits="userSpaceOnUse">
                    <path fill="#ff0000" stroke="none" d="M-2,0 L-12,-4 -9,0 -12,4 z"/>
                </marker>
                <marker id="smallDimPoint1" viewBox="-2 -12 29 24" markerWidth="8" markerHeight="18" orient="auto" markerUnits="userSpaceOnUse">
                    <path stroke="gray" d="M0,0 L20,-4 16,0 20,4 z M0,-10 L0,10 M0,0 L27,0"/>
                </marker>
                <marker id="smallDimPoint2" viewBox="-27 -12 29 24" markerWidth="8" markerHeight="18" orient="auto" markerUnits="userSpaceOnUse">
                    <path stroke="gray" d="M0,0 L-20,-4 -16,0 -20,4 z M0,-10 L0,10 M0,0 L-27,0"/>
                </marker>
                <marker id="DimPointAxis" refX="-6" refY="0" viewBox="-27 -12 29 24" markerWidth="44" markerHeight="36" orient="auto" markerUnits="userSpaceOnUse">
                    <path stroke="gray" stroke-width="0.03em" fill="gray" d="M0,0 L-20,-4 -16,0 -20,4 z"/>
                </marker>
                <marker id="DimPointAxisBlue" refX="-6" refY="0" viewBox="-27 -12 29 24" markerWidth="44" markerHeight="36" orient="auto" markerUnits="userSpaceOnUse">
                    <path stroke="none" fill="blue" d="M0,0 L-20,-4 -16,0 -20,4 z"/>
                </marker>
                <marker id="DimPointRadius" refX="-5" refY="0" viewBox="-27 -12 29 24" markerWidth="44" markerHeight="36" orient="auto" markerUnits="userSpaceOnUse">
                    <path stroke="black" stroke-width="0.03em" fill="black" d="M0,0 L-20,-4 -16,0 -20,4 z"/>
                </marker>
                <pattern id="bevel_pattern" width="15" height="15" patternUnits="userSpaceOnUse">
                    <line stroke="black" x1="0" y1="15" x2="15" y2="0"></line>
                    <line stroke="black" x1="0" y1="0" x2="15" y2="15"></line>
                </pattern>
                <pattern id="bevel_pattern5" width="15" height="15" patternUnits="userSpaceOnUse">
                    <rect x="0" y="0" width="15" height="15" fill="green" />
                    <line stroke="black" x1="0" y1="15" x2="15" y2="0"></line>
                    <line stroke="black" x1="0" y1="0" x2="15" y2="15"></line>
                </pattern>
                <pattern id="bevel_pattern8" width="15" height="15" patternUnits="userSpaceOnUse">
                    <rect x="0" y="0" width="15" height="15" fill="#FA6D08" />
                    <line stroke="black" x1="0" y1="15" x2="15" y2="0"></line>
                    <line stroke="black" x1="0" y1="0" x2="15" y2="15"></line>
                </pattern>
                <pattern id="bevel_pattern10" width="15" height="15" patternUnits="userSpaceOnUse">
                    <rect x="0" y="0" width="15" height="15" fill="lightblue" />
                    <line stroke="black" x1="0" y1="15" x2="15" y2="0"></line>
                    <line stroke="black" x1="0" y1="0" x2="15" y2="15"></line>
                </pattern>
                <pattern id="bevel_pattern_back" width="15" height="15" patternUnits="userSpaceOnUse">
                    <line stroke="#ffffee" x1="0" y1="15" x2="15" y2="0" class="bevel_pattern"></line>
                    <line stroke="#ffffee" x1="0" y1="0" x2="15" y2="15" class="bevel_pattern"></line>
                </pattern>
                <pattern id="bevel_pattern_back5" width="15" height="15" patternUnits="userSpaceOnUse">
                    <rect x="0" y="0" width="15" height="15" fill="green" />
                    <line stroke="#ffffee" x1="0" y1="15" x2="15" y2="0" class="bevel_pattern5"></line>
                    <line stroke="#ffffee" x1="0" y1="0" x2="15" y2="15" class="bevel_pattern5"></line>
                </pattern>
                <pattern id="bevel_pattern_back8" width="15" height="15" patternUnits="userSpaceOnUse">
                    <rect x="0" y="0" width="15" height="15" fill="#FA6D08" />
                    <line stroke="#ffffee" x1="0" y1="15" x2="15" y2="0" class="bevel_pattern8"></line>
                    <line stroke="#ffffee" x1="0" y1="0" x2="15" y2="15" class="bevel_pattern8"></line>
                </pattern>
                <pattern id="bevel_pattern_back10" width="15" height="15" patternUnits="userSpaceOnUse">
                    <rect x="0" y="0" width="15" height="15" fill="lightblue" />
                    <line stroke="#ffffee" x1="0" y1="15" x2="15" y2="0" class="bevel_pattern10"></line>
                    <line stroke="#ffffee" x1="0" y1="0" x2="15" y2="15" class="bevel_pattern10"></line>
                </pattern>
                <pattern id="bevel_pattern-faska" width="15" height="15" patternUnits="userSpaceOnUse">
                    <line stroke="black" x1="0" y1="15" x2="15" y2="0"></line>
                    <line stroke="black" x1="0" y1="0" x2="15" y2="15"></line>
                </pattern>
                <pattern id="bevel_pattern_back-faska" width="15" height="15" patternUnits="userSpaceOnUse">
                    <line stroke="black" x1="0" y1="15" x2="15" y2="0" class="bevel_pattern"></line>
                    <line stroke="black" x1="0" y1="0" x2="15" y2="15" class="bevel_pattern"></line>
                </pattern>
                <pattern id="bevel_pattern-radius" width="15" height="15" patternUnits="userSpaceOnUse">
                    <line stroke="black" x1="0" y1="15" x2="15" y2="0"></line>
                </pattern>
                <pattern id="bevel_pattern_back-radius" width="15" height="15" patternUnits="userSpaceOnUse">
                    <line stroke="black" x1="0" y1="15" x2="15" y2="0" class="bevel_pattern"></line>
                </pattern>
                <pattern id="rounded_pattern" width="15" height="15" patternUnits="userSpaceOnUse">
                    <line stroke="black" x1="0" y1="15" x2="15" y2="0"></line>
                </pattern>
            </defs>
                        <g id="svg-detail" transform="translate(0,341) scale(1,-1)">
                                <g id="svg-side-1">
                                            <path id="svg-side-1-contour" fill="none" stroke="black"
                              stroke-width="8" d=" M 0,0 L 0,10 A 110,110 0 0 0 110,120 L 390,120 A 110,110 0 0 0 500,10 L 500,0 L 0,0"/>
                                        <g id="svg-trapezoid-1" clip-path="url(#svg-side-1-contour-clip)"/><g id="svg-corner-2-atop" class="corner_atop"><path id="svg-corner-2-interaction-area" fill="#FFFFFF" d=" M 0,10 A 110,110 0 0 0 110,120 L 0,120 Z "></path><path id="svg-corner-2-edge-contour"  fill="white" stroke="black" stroke-width="6px"  d=" M 0,10 A 110,110 0 0 0 110,120"> </path></g><g id="svg-corner-3-atop" class="corner_atop"><path id="svg-corner-3-interaction-area" fill="#FFFFFF" d=" M 390,120 A 110,110 0 0 0 500,10 L 500,120 Z "></path><path id="svg-corner-3-edge-contour"  fill="white" stroke="black" stroke-width="6px"  d=" M 390,120 A 110,110 0 0 0 500,10"> </path></g><g id="svg-rectangles-1" hidden="true" style="display:none;" clip-path="url(#svg-side-1-contour-clip)"><rect x="108" y="0" width="150" height="80" stroke="red" stroke-dasharray="2 3" fill="none"/><rect x="108" y="38" width="150" height="80" stroke="red" stroke-dasharray="2 3" fill="none"/><rect x="108" y="10" width="150" height="80" stroke="red" stroke-dasharray="2 3" fill="none"/><rect x="238" y="0" width="150" height="80" stroke="red" stroke-dasharray="2 3" fill="none"/><rect x="238" y="38" width="150" height="80" stroke="red" stroke-dasharray="2 3" fill="none"/><rect x="238" y="10" width="150" height="80" stroke="red" stroke-dasharray="2 3" fill="none"/><rect x="238" y="0" width="80" height="150" stroke="red" stroke-dasharray="2 3" fill="none"/><rect x="108" y="38" width="150" height="80" stroke="red" stroke-dasharray="2 3" fill="none"/><rect x="238" y="38" width="150" height="80" stroke="red" stroke-dasharray="2 3" fill="none"/><rect x="238" y="0" width="80" height="150" stroke="red" stroke-dasharray="2 3" fill="none"/><rect x="238" y="0" width="150" height="80" stroke="red" stroke-dasharray="2 3" fill="none"/><rect x="238" y="38" width="150" height="80" stroke="red" stroke-dasharray="2 3" fill="none"/><rect x="238" y="10" width="150" height="80" stroke="red" stroke-dasharray="2 3" fill="none"/><rect x="238" y="0" width="80" height="150" stroke="red" stroke-dasharray="2 3" fill="none"/><rect x="238" y="38" width="150" height="80" stroke="red" stroke-dasharray="2 3" fill="none"/><rect x="238" y="0" width="80" height="150" stroke="red" stroke-dasharray="2 3" fill="none"/></g>                    <g class="xy-pos">
                        <line class="x-line"/>
                        <line class="y-line"/>
                        <text class="x-text"
                              transform="translate(0, -48) scale(1, -1)"/>
                        <text class="y-text"
                              transform="translate(-48, 0) scale(1, -1) rotate(270)"/>
                                            </g>
                    <g id="svg-contour-bands" clip-path="url(#svg-side-1-contour-clip)"
                       style="">
                        <line x1="0" y1="154" x2="500"
                              y2="154"
                              class="edge2f edge2s mark-band-2"/>
                        <line x1="0" y1="-34" x2="500"
                              y2="-34"
                              class="edge05f edge05s mark-band"/>
                        <line x1="-34" y1="0" x2="-34"
                              y2="120"
                              class="edge2f edge2s mark-band-2"/>
                        <line x1="534" y1="0"
                              x2="534" y2="120"
                              class="edge2f edge2s mark-band-2"/>
                    </g>
                </g>
                                                                                    <g id="svg-side-2" transform="translate(-10, 0) scale(-1,1)">
                                                        <path id="svg-side-2-contour"
                                 fill="white" stroke="black" stroke-width="5px"                                   class="svg_side_left edge2f edge2s"
                                                                d="M 0 0 L 18 0 V 10 L 0 10 z"
                                                              />
                                                                                                                                                                                                                        <path
                                                                                                    fill="white"
                                                    stroke="black"
                                                                                        d="M 0 10 L 18 10 L 18 120 L 0 120 z"/>
                                                                                                                                                                
                            
                                                                                    <g class="xy-pos">
                                <line class="x-line"/>
                                <line class="y-line"/>
                                <text class="x-text"
                                      transform="translate(0, -48) scale(-1, -1)"/>
                                <text class="y-text"
                                      transform="translate(-58, 0) scale(-1, -1) rotate(270)"/>
                            </g>
                                                    </g>
                                                        <g id="svg-side-3" transform="translate(0, 130)">
                                                                        <path id="svg-side-3-contour"
                                         fill="white" stroke="black" stroke-width="5px"                                           class="svg_side_top edge2f edge2s"
                                          d="M 110 0 L 110 18 H 390 L 390 0 z"
                                                                                  style="transform: translate(px,0)"/>
                                                                                                                                                                                            <path
                                                                                                                            fill="white"
                                            stroke="black"
                                                                                                                                  d="M 110 0 L 110 18 L 0 18 L 0 0 z"/>
                                                                                                    <path
                                                                                                                            fill="white"
                                            stroke="black"
                                                                                                                                  d="M 390 0 L 390 18 L 500 18 L 500 0 z"/>
                                                                                                                            
                                                                                    <g class="xy-pos">
                                <line class="x-line"/>
                                <line class="y-line"/>
                                <text class="x-text"
                                      transform="translate(0, -58) scale(1, -1)"/>
                                <text class="y-text"
                                      transform="translate(-48, 0) scale(1, -1) rotate(270)"/>
                            </g>

                                                    </g>
                                                    <g id="svg-side-4" transform="translate(510, 0)">
                                                                    <path id="svg-side-4-contour"
                                         fill="white" stroke="black" stroke-width="5px"                                           class="svg_side_right edge2f edge2s"
                                          d="M 0 0 L 18 0 V 10 L 0 10 z"
                                                                              />
                                                                
                                                                                                                                                            <path
                                                                                                                                                    fill="white"
                                                    stroke="black"
                                                                                                                                  d="M 0 10 L 18 10 L 18 120 L 0 120 z"/>
                                                                                                                                                            
                                                                                    <g class="xy-pos">
                                <line class="x-line"/>
                                <line class="y-line"/>
                                <text class="x-text"
                                      transform="translate(0, -48) scale(1, -1)"/>
                                <text class="y-text"
                                      transform="translate(-58, 0) scale(1, -1) rotate(270)"/>
                            </g>

                                                    </g>
                                                            <g id="svg-side-5" transform="translate(0, -10) scale(1,-1)">
                                                                    <path id="svg-side-5-contour"
                                                                                   fill="white" stroke="black" stroke-width="5px"                                           class="svg_side_bottom edge05f edge05s"
                                          d="M 0 0 L 0 18 H 500 L 500 0 z"/>
                                                                        
                                                                                                                                                                                                                                                    
                            
                                                        <g class="xy-pos">
                                <line class="x-line"/>
                                <line class="y-line"/>
                                <text class="x-text"
                                      transform="translate(0, -58)"/>
                                <text class="y-text"
                                      transform="translate(-48, 0) rotate(270)"/>
                            </g>

                                                    </g>
                        <g id="svg-side-6">
                                <!--                                    <path id="svg-side-6-contour"-->
<!--                                          fill="--><!--;"-->
<!--                                          stroke="--><!--;"-->
<!--                                          stroke-width="--><!--;"-->
<!--                                          class="--><!--"-->
<!--                                          d="--><!--"/>-->
                                                                                        <g class="xy-pos">
                                <line class="x-line"/>
                                <line class="y-line"/>
                                <text class="x-text"
                                      transform="translate(0, -48) scale(1, -1)"/>
                                <text class="y-text"
                                      transform="translate(-48, 0) scale(1, -1) rotate(270)"/>
                            </g>
                        </g>
                                                <g id="svg-grain" clip-path="url(#svg-side-1-contour-clip)"
                           style="display:none;">
                                                                                                <path stroke="black"
                                          stroke-width="8"
                                          fill="none"
                                          opacity="1"
                                          stroke-opacity="1"
                                          d="M 225 50 l 50 0"/>
                                    <path stroke="black"
                                          stroke-width="8"
                                          fill="none"
                                          opacity="1"
                                          stroke-opacity="1"
                                          d="M 225 60 l 50 0"/>
                                    <path stroke="black"
                                          stroke-width="8"
                                          fill="none"
                                          opacity="1"
                                          stroke-opacity="1"
                                          d="M 225 70 l 50 0"/>
                                                                                        </g>
                                        <g class="svg-clipping-rest"/><g class='svg-clipping'></g>                    
                <g id="svg-cuts">
                                    </g>
                <g id="svg-dimentions-sbp">
                                    </g>



                  <g id="svg-dimensions" style="">
                    <g class='svg-clipping-dim'></g>
                    
                    
                                        <g id="svg-corner-rest-2" style="display:none;">
                        
<line id="svg-corner2-left-ln" class="dim-line" x1="110" x2="235" marker-start="url(#DimPoint1)" transform="translate(0,168) scale(1, -1)"/>
<line id="svg-corner2-right-ln" class="dim-line" x1="375" x2="500" marker-end="url(#DimPoint2)" transform="translate(0,168) scale(1, -1)"/>
<text id="svg-corner2-x-text-ln" class="dim-textclip-db-H dim-text" x="305" transform="translate(0,168) scale(1, -1)">390</text>
<line id="svg-corner2-left-ln1" class="dim-ln" x1="0" x2="30" marker-start="url(#DimPoint1)" transform="translate(0,168) scale(1, -1)"/>
<line id="svg-corner2-right-ln1" class="dim-ln" x1="80" x2="110" marker-end="url(#DimPoint2)" transform="translate(0,168) scale(1, -1)"/>
<text id="svg-corner2-x-text-ln1" class="dim-textclip-db-H dim-text2" x="55" transform="translate(0,183) scale(1, -1)">110</text>
<line id="svg-corner2-bottom-ln" class="dim-line" x1="0" x2="10" marker-start="url(#arrowlessDimPoint1)" transform="translate(-48, 0) rotate(90) scale(1, -1)"/>
<line id="svg-corner2-top-ln" class="dim-line" x1="0" x2="10" marker-end="url(#arrowlessDimPoint2)" transform="translate(-48, 0) rotate(90) scale(1, -1)"/>
<text id="svg-corner2-y-text-ln" class="dim-textclip-db-V dim-text2" x="5" transform="translate(-74, 0) rotate(90) scale(1, -1)">10</text>
<line id="svg-corner2-bottom-ln1" class="dim-ln" x1="10" x2="40" marker-start="url(#DimPoint1)" transform="translate(-48, 0) rotate(90) scale(1, -1)"/>
<line id="svg-corner2-top-ln1" class="dim-ln" x1="90" x2="120" marker-end="url(#DimPoint2)" transform="translate(-48, 0) rotate(90) scale(1, -1)"/>
<text id="svg-corner2-y-text-ln1" class="dim-textclip-db-V dim-text2" x="65" transform="translate(-63, 0) rotate(90) scale(1, -1)">110</text> <circle class="helping_circle" vector-effect="non-scaling-stroke" cx="110" cy="10" r="110"/> <line class="helping_circle" vector-effect="non-scaling-stroke" x1="110" x2="0" y1="10" y2="10"></line><line class="helping_circle" vector-effect="non-scaling-stroke" x1="110" x2="110" y1="10" y2="120"></line>
<line id="svg-corner-2-radius-r" class="dim-arrow-R dim-ln1" 
x1="76.1" y1="43.9" x2="39.3" y2="80.7" 
marker-end="url(#DimPointRadius)" transform="translate(0, 0) rotate(0) scale(1, 1)"/>
<text id="svg-corner-2-radius-r-text" class="dim-textclip-db-R dim-text2" 
x="96.6" y="23.4" 
transform="translate(0, 46.9) rotate(-45 96.6,-23.4) scale(1, -1)">R110</text>                    </g>
                                        <g id="svg-corner-rest-3" style="display:none;">
                        
<line id="svg-corner3-left-ln" class="dim-line" x1="0" x2="125" marker-start="url(#DimPoint1)" transform="translate(0,168) scale(1, -1)"/>
<line id="svg-corner3-right-ln" class="dim-line" x1="265" x2="390" marker-end="url(#DimPoint2)" transform="translate(0,168) scale(1, -1)"/>
<text id="svg-corner3-x-text-ln" class="dim-textclip-db-H dim-text" x="195" transform="translate(0,168) scale(1, -1)">390</text>
<line id="svg-corner3-left-ln1" class="dim-ln" x1="390" x2="420" marker-start="url(#DimPoint1)" transform="translate(0,168) scale(1, -1)"/>
<line id="svg-corner3-right-ln1" class="dim-ln" x1="470" x2="500" marker-end="url(#DimPoint2)" transform="translate(0,168) scale(1, -1)"/>
<text id="svg-corner3-x-text-ln1" class="dim-textclip-db-H dim-text2" x="445" transform="translate(0,183) scale(1, -1)">110</text>
<line id="svg-corner3-bottom-ln" class="dim-line" x1="0" x2="10" marker-start="url(#arrowlessDimPoint1)" transform="translate(548, 0) rotate(90) scale(1, -1)"/>
<line id="svg-corner3-top-ln" class="dim-line" x1="0" x2="10" marker-end="url(#arrowlessDimPoint2)" transform="translate(548, 0) rotate(90) scale(1, -1)"/>
<text id="svg-corner3-y-text-ln" class="dim-textclip-db-V dim-text2" x="5" transform="translate(578, 0) rotate(90) scale(1, -1)">10</text>
<line id="svg-corner3-bottom-ln1" class="dim-ln" x1="10" x2="40" marker-start="url(#DimPoint1)" transform="translate(548, 0) rotate(90) scale(1, -1)"/>
<line id="svg-corner3-top-ln1" class="dim-ln" x1="90" x2="120" marker-end="url(#DimPoint2)" transform="translate(548, 0) rotate(90) scale(1, -1)"/>
<text id="svg-corner3-y-text-ln1" class="dim-textclip-db-V dim-text2" x="65" transform="translate(568, 0) rotate(90) scale(1, -1)">110</text> <circle class="helping_circle" vector-effect="non-scaling-stroke" cx="390" cy="10" r="110"/> <line class="helping_circle" vector-effect="non-scaling-stroke" x1="390" x2="390" y1="10" y2="120"></line><line class="helping_circle" vector-effect="non-scaling-stroke" x1="390" x2="500" y1="10" y2="10"></line>
<line id="svg-corner-3-radius-r" class="dim-arrow-R dim-ln1" 
x1="423.9" y1="43.9" x2="460.7" y2="80.7" 
marker-end="url(#DimPointRadius)" transform="translate(0, 0) rotate(0) scale(1, 1)"/>
<text id="svg-corner-3-radius-r-text" class="dim-textclip-db-R dim-text2" 
x="403.4" y="23.4" 
transform="translate(0, 46.9) rotate(45 403.4,-23.4) scale(1, -1)">R110</text>                    </g>
                    
                                                                                                                                                             </g>
                <g id="svg-band-marking" style="display:none;">
                    <g id="svg-band-marking-top" style="">
                        <line
                                class="mark-band-2"
                                x1="0" x2="180"
                                transform="translate(0,168) scale(1, -1)"/>
                        <line
                                class="mark-band-2"
                                x1="320" x2="500"
                                transform="translate(0,168) scale(1, -1)"/>
                        <text class="dim-text" x="250"
                              transform="translate(0,168) scale(1, -1)">2                            мм                        </text>
                    </g>
                    <g id="svg-band-marking-bottom" style="">
                        <line
                                class="mark-band"
                                x1="0" x2="180"
                                transform="translate(0,-48) scale(1, -1)"/>
                        <line
                                class="mark-band"
                                x1="320" x2="500"
                                transform="translate(0,-48) scale(1, -1)"/>
                        <text class="dim-text" x="250"
                              transform="translate(0,-48) scale(1, -1)">0.6                            мм                        </text>
                    </g>
                    <g id="svg-band-marking-left" style="">
                        <line
                                class="mark-band-2"
                                x1="0" x2="-10"
                                transform="translate(-48, 0) rotate(90) scale(1, -1)"/>
                        <line
                                class="mark-band-2"
                                x1="130" x2="120"
                                transform="translate(-48, 0) rotate(90) scale(1, -1)"/>
                        <text class="dim-text" x="60"
                              transform="translate(-48, 0) rotate(90) scale(1, -1)">2                            мм                        </text>
                    </g>
                    <g id="svg-band-marking-right" style="">
                        <line
                                class="mark-band-2"
                                x1="0" x2="-10"
                                transform="translate(548, 0) rotate(90) scale(1, -1)"/>
                        <line
                                class="mark-band-2"
                                x1="130" x2="120"
                                transform="translate(548, 0) rotate(90) scale(1, -1)"/>
                        <text class="dim-text" x="60"
                              transform="translate(548, 0) rotate(90) scale(1, -1)">2                            мм                        </text>
                    </g>
                </g>
                <g id="svg-info" transform="scale(1,-1)">
                    <text x="-38"
                          y="38" id="svg-info-text"></text>
                </g>
                                            </g>

                    </svg>
        