        <svg id="svg-draft"
                              style="border: '1px solid transparent'"
                         width="100%" height="100%" errmsg=""
             viewBox="-115 115 530 530"
             version="1.1" baseProfile="full" xmlns="http://www.w3.org/2000/svg" xmlns:xlink="http://www.w3.org/1999/xlink" xmlns:ev="http://www.w3.org/2001/xml-events">
            <title>300 x 300 x 18</title>
                        <defs>
                                                                                <clipPath id="svg-side-1-contour-clip">
                    <use xlink:href="#svg-side-1-contour"/>
                </clipPath>
                <clipPath id="svg-side-2-contour-clip">
                    <use xlink:href="#svg-side-2-contour"/>
                </clipPath>
                <clipPath id="svg-side-3-contour-clip">
                    <use xlink:href="#svg-side-3-contour"/>
                </clipPath>
                <clipPath id="svg-side-4-contour-clip">
                    <use xlink:href="#svg-side-4-contour"/>
                </clipPath>
                <clipPath id="svg-side-5-contour-clip">
                    <use xlink:href="#svg-side-5-contour"/>
                </clipPath>
                <clipPath id="svg-side-6-contour-clip">
                    <use xlink:href="#svg-side-1-contour"/>
                </clipPath>
                <clipPath id="svg-side-7-contour-clip">
                    <use xlink:href="#svg-side-1-contour"/>
                </clipPath>
                <clipPath id="svg-side-8-contour-clip">
                    <use xlink:href="#svg-side-1-contour"/>
                </clipPath>
                <clipPath id="svg-side-9-contour-clip">
                    <use xlink:href="#svg-side-1-contour"/>
                </clipPath>
                <clipPath id="svg-side-10-contour-clip">
                    <use xlink:href="#svg-side-1-contour"/>
                </clipPath>
                <marker id="arrowlessDimPoint1" viewBox="-2 -12 29 24" markerWidth="44" markerHeight="36" orient="auto" markerUnits="userSpaceOnUse">
                    <path stroke="black" d="M0,-10 L0,10"/>
                </marker>
                <marker id="arrowlessDimPoint2" viewBox="-27 -12 29 24" markerWidth="44" markerHeight="36" orient="auto" markerUnits="userSpaceOnUse">
                    <path stroke="black" d="M0,-10 L0,10"/>
                </marker>
                <marker id="DimPoint1" viewBox="-2 -12 29 24" markerWidth="44" markerHeight="36" orient="auto" markerUnits="userSpaceOnUse">
                    <path stroke="black" d="M0,0 L20,-4 16,0 20,4 z M0,-10 L0,10 M0,0 L27,0"/>
                </marker>
                <marker id="DimPoint2" viewBox="-27 -12 29 24" markerWidth="44" markerHeight="36" orient="auto" markerUnits="userSpaceOnUse">
                    <path stroke="black" d="M0,0 L-20,-4 -16,0 -20,4 z M0,-10 L0,10 M0,0 L-27,0"/>
                </marker>
                <marker id="DimPointRed" viewBox="-27 -12 29 24" markerWidth="44" markerHeight="36" orient="auto" markerUnits="userSpaceOnUse">
                    <path fill="#ff0000" stroke="none" d="M-2,0 L-12,-4 -9,0 -12,4 z"/>
                </marker>
                <marker id="smallDimPoint1" viewBox="-2 -12 29 24" markerWidth="8" markerHeight="18" orient="auto" markerUnits="userSpaceOnUse">
                    <path stroke="gray" d="M0,0 L20,-4 16,0 20,4 z M0,-10 L0,10 M0,0 L27,0"/>
                </marker>
                <marker id="smallDimPoint2" viewBox="-27 -12 29 24" markerWidth="8" markerHeight="18" orient="auto" markerUnits="userSpaceOnUse">
                    <path stroke="gray" d="M0,0 L-20,-4 -16,0 -20,4 z M0,-10 L0,10 M0,0 L-27,0"/>
                </marker>
                <marker id="DimPointAxis" refX="-6" refY="0" viewBox="-27 -12 29 24" markerWidth="44" markerHeight="36" orient="auto" markerUnits="userSpaceOnUse">
                    <path stroke="gray" stroke-width="0.03em" fill="gray" d="M0,0 L-20,-4 -16,0 -20,4 z"/>
                </marker>
                <marker id="DimPointAxisBlue" refX="-6" refY="0" viewBox="-27 -12 29 24" markerWidth="44" markerHeight="36" orient="auto" markerUnits="userSpaceOnUse">
                    <path stroke="none" fill="blue" d="M0,0 L-20,-4 -16,0 -20,4 z"/>
                </marker>
                <marker id="DimPointRadius" refX="-5" refY="0" viewBox="-27 -12 29 24" markerWidth="44" markerHeight="36" orient="auto" markerUnits="userSpaceOnUse">
                    <path stroke="black" stroke-width="0.03em" fill="black" d="M0,0 L-20,-4 -16,0 -20,4 z"/>
                </marker>
                <pattern id="bevel_pattern" width="15" height="15" patternUnits="userSpaceOnUse">
                    <line stroke="black" x1="0" y1="15" x2="15" y2="0"></line>
                    <line stroke="black" x1="0" y1="0" x2="15" y2="15"></line>
                </pattern>
                <pattern id="bevel_pattern5" width="15" height="15" patternUnits="userSpaceOnUse">
                    <rect x="0" y="0" width="15" height="15" fill="green" />
                    <line stroke="black" x1="0" y1="15" x2="15" y2="0"></line>
                    <line stroke="black" x1="0" y1="0" x2="15" y2="15"></line>
                </pattern>
                <pattern id="bevel_pattern8" width="15" height="15" patternUnits="userSpaceOnUse">
                    <rect x="0" y="0" width="15" height="15" fill="#FA6D08" />
                    <line stroke="black" x1="0" y1="15" x2="15" y2="0"></line>
                    <line stroke="black" x1="0" y1="0" x2="15" y2="15"></line>
                </pattern>
                <pattern id="bevel_pattern10" width="15" height="15" patternUnits="userSpaceOnUse">
                    <rect x="0" y="0" width="15" height="15" fill="lightblue" />
                    <line stroke="black" x1="0" y1="15" x2="15" y2="0"></line>
                    <line stroke="black" x1="0" y1="0" x2="15" y2="15"></line>
                </pattern>
                <pattern id="bevel_pattern_back" width="15" height="15" patternUnits="userSpaceOnUse">
                    <line stroke="#ffffee" x1="0" y1="15" x2="15" y2="0" class="bevel_pattern"></line>
                    <line stroke="#ffffee" x1="0" y1="0" x2="15" y2="15" class="bevel_pattern"></line>
                </pattern>
                <pattern id="bevel_pattern_back5" width="15" height="15" patternUnits="userSpaceOnUse">
                    <rect x="0" y="0" width="15" height="15" fill="green" />
                    <line stroke="#ffffee" x1="0" y1="15" x2="15" y2="0" class="bevel_pattern5"></line>
                    <line stroke="#ffffee" x1="0" y1="0" x2="15" y2="15" class="bevel_pattern5"></line>
                </pattern>
                <pattern id="bevel_pattern_back8" width="15" height="15" patternUnits="userSpaceOnUse">
                    <rect x="0" y="0" width="15" height="15" fill="#FA6D08" />
                    <line stroke="#ffffee" x1="0" y1="15" x2="15" y2="0" class="bevel_pattern8"></line>
                    <line stroke="#ffffee" x1="0" y1="0" x2="15" y2="15" class="bevel_pattern8"></line>
                </pattern>
                <pattern id="bevel_pattern_back10" width="15" height="15" patternUnits="userSpaceOnUse">
                    <rect x="0" y="0" width="15" height="15" fill="lightblue" />
                    <line stroke="#ffffee" x1="0" y1="15" x2="15" y2="0" class="bevel_pattern10"></line>
                    <line stroke="#ffffee" x1="0" y1="0" x2="15" y2="15" class="bevel_pattern10"></line>
                </pattern>
                <pattern id="bevel_pattern-faska" width="15" height="15" patternUnits="userSpaceOnUse">
                    <line stroke="black" x1="0" y1="15" x2="15" y2="0"></line>
                    <line stroke="black" x1="0" y1="0" x2="15" y2="15"></line>
                </pattern>
                <pattern id="bevel_pattern_back-faska" width="15" height="15" patternUnits="userSpaceOnUse">
                    <line stroke="black" x1="0" y1="15" x2="15" y2="0" class="bevel_pattern"></line>
                    <line stroke="black" x1="0" y1="0" x2="15" y2="15" class="bevel_pattern"></line>
                </pattern>
                <pattern id="bevel_pattern-radius" width="15" height="15" patternUnits="userSpaceOnUse">
                    <line stroke="black" x1="0" y1="15" x2="15" y2="0"></line>
                </pattern>
                <pattern id="bevel_pattern_back-radius" width="15" height="15" patternUnits="userSpaceOnUse">
                    <line stroke="black" x1="0" y1="15" x2="15" y2="0" class="bevel_pattern"></line>
                </pattern>
                <pattern id="rounded_pattern" width="15" height="15" patternUnits="userSpaceOnUse">
                    <line stroke="black" x1="0" y1="15" x2="15" y2="0"></line>
                </pattern>
            </defs>
                        <g id="svg-detail" transform="translate(0,530) scale(1,-1)">
                                <g id="svg-side-1">
                                            <path id="svg-side-1-contour" fill="none" stroke="black"
                              stroke-width="8" d=" M 100,0 A 100,100 0 0 0 0,100 L 0,200 A 100,100 0 0 0 100,300 L 200,300 A 100,100 0 0 0 300,200 L 300,100 A 100,100 0 0 0 200,0 L 100,0"/>
                                        <g id="svg-trapezoid-1" clip-path="url(#svg-side-1-contour-clip)"/><g id="svg-corner-1-atop" class="corner_atop"><path id="svg-corner-1-interaction-area" fill="#FFFFFF" d=" M 100,0 A 100,100 0 0 0 0,100 L 0,0 Z "></path><path id="svg-corner-1-edge-contour"  fill="white" stroke="black" stroke-width="6px"  d=" M 100,0 A 100,100 0 0 0 0,100"> </path></g><g id="svg-corner-2-atop" class="corner_atop"><path id="svg-corner-2-interaction-area" fill="#FFFFFF" d=" M 0,200 A 100,100 0 0 0 100,300 L 0,300 Z "></path><path id="svg-corner-2-edge-contour"  fill="white" stroke="black" stroke-width="6px"  d=" M 0,200 A 100,100 0 0 0 100,300"> </path></g><g id="svg-corner-3-atop" class="corner_atop"><path id="svg-corner-3-interaction-area" fill="#FFFFFF" d=" M 200,300 A 100,100 0 0 0 300,200 L 300,300 Z "></path><path id="svg-corner-3-edge-contour"  fill="white" stroke="black" stroke-width="6px"  d=" M 200,300 A 100,100 0 0 0 300,200"> </path></g><g id="svg-corner-4-atop" class="corner_atop"><path id="svg-corner-4-interaction-area" fill="#FFFFFF" d=" M 300,100 A 100,100 0 0 0 200,0 L 300,0 Z "></path><path id="svg-corner-4-edge-contour"  fill="white" stroke="black" stroke-width="6px"  d=" M 300,100 A 100,100 0 0 0 200,0"> </path></g><g id="svg-rectangles-1" hidden="true" style="display:none;" clip-path="url(#svg-side-1-contour-clip)"><rect x="98" y="0" width="80" height="150" stroke="red" stroke-dasharray="2 3" fill="none"/><rect x="98" y="146" width="80" height="150" stroke="red" stroke-dasharray="2 3" fill="none"/><rect x="98" y="98" width="80" height="150" stroke="red" stroke-dasharray="2 3" fill="none"/><rect x="98" y="49" width="80" height="150" stroke="red" stroke-dasharray="2 3" fill="none"/><rect x="98" y="48" width="80" height="150" stroke="red" stroke-dasharray="2 3" fill="none"/><rect x="98" y="97" width="80" height="150" stroke="red" stroke-dasharray="2 3" fill="none"/><rect x="49" y="49" width="80" height="150" stroke="red" stroke-dasharray="2 3" fill="none"/><rect x="49" y="97" width="80" height="150" stroke="red" stroke-dasharray="2 3" fill="none"/><rect x="118" y="0" width="80" height="150" stroke="red" stroke-dasharray="2 3" fill="none"/><rect x="118" y="146" width="80" height="150" stroke="red" stroke-dasharray="2 3" fill="none"/><rect x="118" y="98" width="80" height="150" stroke="red" stroke-dasharray="2 3" fill="none"/><rect x="118" y="49" width="80" height="150" stroke="red" stroke-dasharray="2 3" fill="none"/><rect x="118" y="48" width="80" height="150" stroke="red" stroke-dasharray="2 3" fill="none"/><rect x="118" y="97" width="80" height="150" stroke="red" stroke-dasharray="2 3" fill="none"/><rect x="0" y="98" width="150" height="80" stroke="red" stroke-dasharray="2 3" fill="none"/><rect x="0" y="118" width="150" height="80" stroke="red" stroke-dasharray="2 3" fill="none"/><rect x="146" y="98" width="150" height="80" stroke="red" stroke-dasharray="2 3" fill="none"/><rect x="146" y="118" width="150" height="80" stroke="red" stroke-dasharray="2 3" fill="none"/><rect x="98" y="98" width="150" height="80" stroke="red" stroke-dasharray="2 3" fill="none"/><rect x="98" y="118" width="150" height="80" stroke="red" stroke-dasharray="2 3" fill="none"/><rect x="49" y="98" width="150" height="80" stroke="red" stroke-dasharray="2 3" fill="none"/><rect x="49" y="49" width="150" height="80" stroke="red" stroke-dasharray="2 3" fill="none"/><rect x="49" y="118" width="150" height="80" stroke="red" stroke-dasharray="2 3" fill="none"/><rect x="48" y="98" width="150" height="80" stroke="red" stroke-dasharray="2 3" fill="none"/><rect x="48" y="118" width="150" height="80" stroke="red" stroke-dasharray="2 3" fill="none"/><rect x="97" y="98" width="150" height="80" stroke="red" stroke-dasharray="2 3" fill="none"/><rect x="97" y="49" width="150" height="80" stroke="red" stroke-dasharray="2 3" fill="none"/><rect x="97" y="118" width="150" height="80" stroke="red" stroke-dasharray="2 3" fill="none"/><rect x="98" y="146" width="80" height="150" stroke="red" stroke-dasharray="2 3" fill="none"/><rect x="98" y="98" width="80" height="150" stroke="red" stroke-dasharray="2 3" fill="none"/><rect x="98" y="97" width="80" height="150" stroke="red" stroke-dasharray="2 3" fill="none"/><rect x="49" y="97" width="80" height="150" stroke="red" stroke-dasharray="2 3" fill="none"/><rect x="118" y="146" width="80" height="150" stroke="red" stroke-dasharray="2 3" fill="none"/><rect x="118" y="98" width="80" height="150" stroke="red" stroke-dasharray="2 3" fill="none"/><rect x="118" y="97" width="80" height="150" stroke="red" stroke-dasharray="2 3" fill="none"/><rect x="0" y="118" width="150" height="80" stroke="red" stroke-dasharray="2 3" fill="none"/><rect x="146" y="118" width="150" height="80" stroke="red" stroke-dasharray="2 3" fill="none"/><rect x="98" y="118" width="150" height="80" stroke="red" stroke-dasharray="2 3" fill="none"/><rect x="49" y="118" width="150" height="80" stroke="red" stroke-dasharray="2 3" fill="none"/><rect x="49" y="167" width="150" height="80" stroke="red" stroke-dasharray="2 3" fill="none"/><rect x="48" y="118" width="150" height="80" stroke="red" stroke-dasharray="2 3" fill="none"/><rect x="97" y="118" width="150" height="80" stroke="red" stroke-dasharray="2 3" fill="none"/><rect x="97" y="167" width="150" height="80" stroke="red" stroke-dasharray="2 3" fill="none"/><rect x="118" y="0" width="80" height="150" stroke="red" stroke-dasharray="2 3" fill="none"/><rect x="118" y="146" width="80" height="150" stroke="red" stroke-dasharray="2 3" fill="none"/><rect x="118" y="98" width="80" height="150" stroke="red" stroke-dasharray="2 3" fill="none"/><rect x="118" y="49" width="80" height="150" stroke="red" stroke-dasharray="2 3" fill="none"/><rect x="118" y="48" width="80" height="150" stroke="red" stroke-dasharray="2 3" fill="none"/><rect x="118" y="97" width="80" height="150" stroke="red" stroke-dasharray="2 3" fill="none"/><rect x="167" y="49" width="80" height="150" stroke="red" stroke-dasharray="2 3" fill="none"/><rect x="167" y="97" width="80" height="150" stroke="red" stroke-dasharray="2 3" fill="none"/><rect x="146" y="98" width="150" height="80" stroke="red" stroke-dasharray="2 3" fill="none"/><rect x="146" y="118" width="150" height="80" stroke="red" stroke-dasharray="2 3" fill="none"/><rect x="98" y="98" width="150" height="80" stroke="red" stroke-dasharray="2 3" fill="none"/><rect x="98" y="118" width="150" height="80" stroke="red" stroke-dasharray="2 3" fill="none"/><rect x="97" y="98" width="150" height="80" stroke="red" stroke-dasharray="2 3" fill="none"/><rect x="97" y="49" width="150" height="80" stroke="red" stroke-dasharray="2 3" fill="none"/><rect x="97" y="118" width="150" height="80" stroke="red" stroke-dasharray="2 3" fill="none"/><rect x="118" y="146" width="80" height="150" stroke="red" stroke-dasharray="2 3" fill="none"/><rect x="118" y="98" width="80" height="150" stroke="red" stroke-dasharray="2 3" fill="none"/><rect x="118" y="97" width="80" height="150" stroke="red" stroke-dasharray="2 3" fill="none"/><rect x="167" y="97" width="80" height="150" stroke="red" stroke-dasharray="2 3" fill="none"/><rect x="146" y="118" width="150" height="80" stroke="red" stroke-dasharray="2 3" fill="none"/><rect x="98" y="118" width="150" height="80" stroke="red" stroke-dasharray="2 3" fill="none"/><rect x="97" y="118" width="150" height="80" stroke="red" stroke-dasharray="2 3" fill="none"/><rect x="97" y="167" width="150" height="80" stroke="red" stroke-dasharray="2 3" fill="none"/></g>                    <g class="xy-pos">
                        <line class="x-line"/>
                        <line class="y-line"/>
                        <text class="x-text"
                              transform="translate(0, -48) scale(1, -1)"/>
                        <text class="y-text"
                              transform="translate(-48, 0) scale(1, -1) rotate(270)"/>
                                            </g>
                    <g id="svg-contour-bands" clip-path="url(#svg-side-1-contour-clip)"
                       style="">
                        <line x1="0" y1="334" x2="300"
                              y2="334"
                              class="edge2f edge2s mark-band-2"/>
                        <line x1="0" y1="-34" x2="300"
                              y2="-34"
                              class="edge2f edge2s mark-band-2"/>
                        <line x1="-34" y1="0" x2="-34"
                              y2="300"
                              class="edge2f edge2s mark-band-2"/>
                        <line x1="334" y1="0"
                              x2="334" y2="300"
                              class="edge2f edge2s mark-band-2"/>
                    </g>
                </g>
                                                                                    <g id="svg-side-2" transform="translate(-10, 0) scale(-1,1)">
                                                        <path id="svg-side-2-contour"
                                 fill="white" stroke="black" stroke-width="5px"                                   class="svg_side_left edge2f edge2s"
                                                                d="M 0 100 L 18 100 V 200 L 0 200 z"
                                                              />
                                                                                                                                                                                    <path
                                                                                fill="white"
                                            stroke="black"
                                                                                  d="M 0 100 L 18 100 L 18 0 L 0 0 z"/>
                                                                                                        <path
                                                                                                    fill="white"
                                                    stroke="black"
                                                                                        d="M 0 200 L 18 200 L 18 300 L 0 300 z"/>
                                                                                                                                                                
                            
                                                                                    <g class="xy-pos">
                                <line class="x-line"/>
                                <line class="y-line"/>
                                <text class="x-text"
                                      transform="translate(0, -48) scale(-1, -1)"/>
                                <text class="y-text"
                                      transform="translate(-58, 0) scale(-1, -1) rotate(270)"/>
                            </g>
                                                    </g>
                                                        <g id="svg-side-3" transform="translate(0, 310)">
                                                                        <path id="svg-side-3-contour"
                                         fill="white" stroke="black" stroke-width="5px"                                           class="svg_side_top edge2f edge2s"
                                          d="M 100 0 L 100 18 H 200 L 200 0 z"
                                                                                  style="transform: translate(px,0)"/>
                                                                                                                                                                                            <path
                                                                                                                            fill="white"
                                            stroke="black"
                                                                                                                                  d="M 100 0 L 100 18 L 0 18 L 0 0 z"/>
                                                                                                    <path
                                                                                                                            fill="white"
                                            stroke="black"
                                                                                                                                  d="M 200 0 L 200 18 L 300 18 L 300 0 z"/>
                                                                                                                            
                                                                                    <g class="xy-pos">
                                <line class="x-line"/>
                                <line class="y-line"/>
                                <text class="x-text"
                                      transform="translate(0, -58) scale(1, -1)"/>
                                <text class="y-text"
                                      transform="translate(-48, 0) scale(1, -1) rotate(270)"/>
                            </g>

                                                    </g>
                                                    <g id="svg-side-4" transform="translate(310, 0)">
                                                                    <path id="svg-side-4-contour"
                                         fill="white" stroke="black" stroke-width="5px"                                           class="svg_side_right edge2f edge2s"
                                          d="M 0 100 L 18 100 V 200 L 0 200 z"
                                                                              />
                                                                
                                                                                                                                                            <path
                                                                                                                                                    fill="white"
                                                    stroke="black"
                                                                                                                                  d="M 0 200 L 18 200 L 18 300 L 0 300 z"/>
                                                                                                    <path
                                                                                                                            fill="white"
                                            stroke="black"
                                                                                                                                  d="M 0 100 L 18 100 L 18 0 L 0 0 z"/>
                                                                                                                            
                                                                                    <g class="xy-pos">
                                <line class="x-line"/>
                                <line class="y-line"/>
                                <text class="x-text"
                                      transform="translate(0, -48) scale(1, -1)"/>
                                <text class="y-text"
                                      transform="translate(-58, 0) scale(1, -1) rotate(270)"/>
                            </g>

                                                    </g>
                                                            <g id="svg-side-5" transform="translate(0, -10) scale(1,-1)">
                                                                    <path id="svg-side-5-contour"
                                                                                   fill="white" stroke="black" stroke-width="5px"                                           class="svg_side_bottom edge2f edge2s"
                                          d="M 100 0 L 100 18 H 200 L 200 0 z"/>
                                                                        
                                                                                                                                                            <path
                                                                                    fill="#EEEEEE"
                                            stroke="black"
                                                                                  d="M 100 0 L 100 18 L 0 18 L 0 0 z"/>
                                                                                                    <path
                                                                                    fill="#EEEEEE"
                                            stroke="black"
                                                                                  d="M 200 0 L 200 18 L 300 18 L 300 0 z"/>
                                                                                                                            
                            
                                                        <g class="xy-pos">
                                <line class="x-line"/>
                                <line class="y-line"/>
                                <text class="x-text"
                                      transform="translate(0, -58)"/>
                                <text class="y-text"
                                      transform="translate(-48, 0) rotate(270)"/>
                            </g>

                                                    </g>
                        <g id="svg-side-6">
                                <!--                                    <path id="svg-side-6-contour"-->
<!--                                          fill="--><!--;"-->
<!--                                          stroke="--><!--;"-->
<!--                                          stroke-width="--><!--;"-->
<!--                                          class="--><!--"-->
<!--                                          d="--><!--"/>-->
                                                                                        <g class="xy-pos">
                                <line class="x-line"/>
                                <line class="y-line"/>
                                <text class="x-text"
                                      transform="translate(0, -48) scale(1, -1)"/>
                                <text class="y-text"
                                      transform="translate(-48, 0) scale(1, -1) rotate(270)"/>
                            </g>
                        </g>
                                                <g id="svg-grain" clip-path="url(#svg-side-1-contour-clip)"
                           style="display:none;">
                                                                                                <path stroke="black"
                                          stroke-width="8"
                                          fill="none"
                                          opacity="1"
                                          stroke-opacity="1"
                                          d="M 135 140 l 30 0"/>
                                    <path stroke="black"
                                          stroke-width="8"
                                          fill="none"
                                          opacity="1"
                                          stroke-opacity="1"
                                          d="M 135 150 l 30 0"/>
                                    <path stroke="black"
                                          stroke-width="8"
                                          fill="none"
                                          opacity="1"
                                          stroke-opacity="1"
                                          d="M 135 160 l 30 0"/>
                                                                                        </g>
                                        <g class="svg-clipping-rest"/><g class='svg-clipping'></g>                    
                <g id="svg-cuts">
                                    </g>
                <g id="svg-dimentions-sbp">
                                    </g>



                  <g id="svg-dimensions" style="">
                    <g class='svg-clipping-dim'></g>
                    
                    
                                        <g id="svg-corner-rest-1" style="display:none;">
                        
<line id="svg-corner1-left-ln" class="dim-line" x1="100" x2="130" marker-start="url(#DimPoint1)" transform="translate(0,-48) scale(1, -1)"/>
<line id="svg-corner1-right-ln" class="dim-line" x1="270" x2="300" marker-end="url(#DimPoint2)" transform="translate(0,-48) scale(1, -1)"/>
<text id="svg-corner1-x-text-ln" class="dim-textclip-db-H dim-text" x="200" transform="translate(0,-52) scale(1, -1)">200</text>
<line id="svg-corner1-left-ln1" class="dim-ln" x1="0" x2="30" marker-start="url(#DimPoint1)" transform="translate(0,-48) scale(1, -1)"/>
<line id="svg-corner1-right-ln1" class="dim-ln" x1="70" x2="100" marker-end="url(#DimPoint2)" transform="translate(0,-48) scale(1, -1)"/>
<text id="svg-corner1-x-text-ln1" class="dim-textclip-db-H dim-text2" x="50" transform="translate(0,-67) scale(1, -1)">100</text>
<line id="svg-corner1-bottom-ln" class="dim-line" x1="100" x2="130" marker-start="url(#DimPoint1)" transform="translate(-48, 0) rotate(90) scale(1, -1)"/>
<line id="svg-corner1-top-ln" class="dim-line" x1="270" x2="300" marker-end="url(#DimPoint2)" transform="translate(-48, 0) rotate(90) scale(1, -1)"/>
<text id="svg-corner1-y-text-ln" class="dim-textclip-db-V dim-text" x="200" transform="translate(-48, 0) rotate(90) scale(1, -1)">200</text>
<line id="svg-corner1-bottom-ln1" class="dim-ln" x1="0" x2="30" marker-start="url(#DimPoint1)" transform="translate(-48, 0) rotate(90) scale(1, -1)"/>
<line id="svg-corner1-top-ln1" class="dim-ln" x1="70" x2="100" marker-end="url(#DimPoint2)" transform="translate(-48, 0) rotate(90) scale(1, -1)"/>
<text id="svg-corner1-y-text-ln1" class="dim-textclip-db-V dim-text2" x="50" transform="translate(-63, 0) rotate(90) scale(1, -1)">100</text> <circle class="helping_circle" vector-effect="non-scaling-stroke" cx="100" cy="100" r="100"/> <line class="helping_circle" vector-effect="non-scaling-stroke" x1="100" x2="100" y1="100" y2="0"></line><line class="helping_circle" vector-effect="non-scaling-stroke" x1="100" x2="0" y1="100" y2="100"></line>
<line id="svg-corner-1-radius-r" class="dim-arrow-R dim-ln1" 
x1="70.3" y1="70.3" x2="36.4" y2="36.4" 
marker-end="url(#DimPointRadius)" transform="translate(0, 0) rotate(0) scale(1, 1)"/>
<text id="svg-corner-1-radius-r-text" class="dim-textclip-db-R dim-text2" 
x="90.8" y="90.8" 
transform="translate(0, 181.6) rotate(-315 90.8,-90.8) scale(1, -1)">R100</text>                    </g>
                                        <g id="svg-corner-rest-2" style="display:none;">
                        
<line id="svg-corner2-left-ln" class="dim-line" x1="100" x2="130" marker-start="url(#DimPoint1)" transform="translate(0,348) scale(1, -1)"/>
<line id="svg-corner2-right-ln" class="dim-line" x1="270" x2="300" marker-end="url(#DimPoint2)" transform="translate(0,348) scale(1, -1)"/>
<text id="svg-corner2-x-text-ln" class="dim-textclip-db-H dim-text" x="200" transform="translate(0,348) scale(1, -1)">200</text>
<line id="svg-corner2-left-ln1" class="dim-ln" x1="0" x2="30" marker-start="url(#DimPoint1)" transform="translate(0,348) scale(1, -1)"/>
<line id="svg-corner2-right-ln1" class="dim-ln" x1="70" x2="100" marker-end="url(#DimPoint2)" transform="translate(0,348) scale(1, -1)"/>
<text id="svg-corner2-x-text-ln1" class="dim-textclip-db-H dim-text2" x="50" transform="translate(0,363) scale(1, -1)">100</text>
<line id="svg-corner2-bottom-ln" class="dim-line" x1="0" x2="30" marker-start="url(#DimPoint1)" transform="translate(-48, 0) rotate(90) scale(1, -1)"/>
<line id="svg-corner2-top-ln" class="dim-line" x1="170" x2="200" marker-end="url(#DimPoint2)" transform="translate(-48, 0) rotate(90) scale(1, -1)"/>
<text id="svg-corner2-y-text-ln" class="dim-textclip-db-V dim-text" x="100" transform="translate(-48, 0) rotate(90) scale(1, -1)">200</text>
<line id="svg-corner2-bottom-ln1" class="dim-ln" x1="200" x2="230" marker-start="url(#DimPoint1)" transform="translate(-48, 0) rotate(90) scale(1, -1)"/>
<line id="svg-corner2-top-ln1" class="dim-ln" x1="270" x2="300" marker-end="url(#DimPoint2)" transform="translate(-48, 0) rotate(90) scale(1, -1)"/>
<text id="svg-corner2-y-text-ln1" class="dim-textclip-db-V dim-text2" x="250" transform="translate(-63, 0) rotate(90) scale(1, -1)">100</text> <circle class="helping_circle" vector-effect="non-scaling-stroke" cx="100" cy="200" r="100"/> <line class="helping_circle" vector-effect="non-scaling-stroke" x1="100" x2="0" y1="200" y2="200"></line><line class="helping_circle" vector-effect="non-scaling-stroke" x1="100" x2="100" y1="200" y2="300"></line>
<line id="svg-corner-2-radius-r" class="dim-arrow-R dim-ln1" 
x1="70.3" y1="229.7" x2="36.4" y2="263.6" 
marker-end="url(#DimPointRadius)" transform="translate(0, 0) rotate(0) scale(1, 1)"/>
<text id="svg-corner-2-radius-r-text" class="dim-textclip-db-R dim-text2" 
x="90.8" y="209.2" 
transform="translate(0, 418.4) rotate(-45 90.8,-209.2) scale(1, -1)">R100</text>                    </g>
                                        <g id="svg-corner-rest-3" style="display:none;">
                        
<line id="svg-corner3-left-ln" class="dim-line" x1="0" x2="30" marker-start="url(#DimPoint1)" transform="translate(0,348) scale(1, -1)"/>
<line id="svg-corner3-right-ln" class="dim-line" x1="170" x2="200" marker-end="url(#DimPoint2)" transform="translate(0,348) scale(1, -1)"/>
<text id="svg-corner3-x-text-ln" class="dim-textclip-db-H dim-text" x="100" transform="translate(0,348) scale(1, -1)">200</text>
<line id="svg-corner3-left-ln1" class="dim-ln" x1="200" x2="230" marker-start="url(#DimPoint1)" transform="translate(0,348) scale(1, -1)"/>
<line id="svg-corner3-right-ln1" class="dim-ln" x1="270" x2="300" marker-end="url(#DimPoint2)" transform="translate(0,348) scale(1, -1)"/>
<text id="svg-corner3-x-text-ln1" class="dim-textclip-db-H dim-text2" x="250" transform="translate(0,363) scale(1, -1)">100</text>
<line id="svg-corner3-bottom-ln" class="dim-line" x1="0" x2="30" marker-start="url(#DimPoint1)" transform="translate(348, 0) rotate(90) scale(1, -1)"/>
<line id="svg-corner3-top-ln" class="dim-line" x1="170" x2="200" marker-end="url(#DimPoint2)" transform="translate(348, 0) rotate(90) scale(1, -1)"/>
<text id="svg-corner3-y-text-ln" class="dim-textclip-db-V dim-text" x="100" transform="translate(352, 0) rotate(90) scale(1, -1)">200</text>
<line id="svg-corner3-bottom-ln1" class="dim-ln" x1="200" x2="230" marker-start="url(#DimPoint1)" transform="translate(348, 0) rotate(90) scale(1, -1)"/>
<line id="svg-corner3-top-ln1" class="dim-ln" x1="270" x2="300" marker-end="url(#DimPoint2)" transform="translate(348, 0) rotate(90) scale(1, -1)"/>
<text id="svg-corner3-y-text-ln1" class="dim-textclip-db-V dim-text2" x="250" transform="translate(368, 0) rotate(90) scale(1, -1)">100</text> <circle class="helping_circle" vector-effect="non-scaling-stroke" cx="200" cy="200" r="100"/> <line class="helping_circle" vector-effect="non-scaling-stroke" x1="200" x2="200" y1="200" y2="300"></line><line class="helping_circle" vector-effect="non-scaling-stroke" x1="200" x2="300" y1="200" y2="200"></line>
<line id="svg-corner-3-radius-r" class="dim-arrow-R dim-ln1" 
x1="229.7" y1="229.7" x2="263.6" y2="263.6" 
marker-end="url(#DimPointRadius)" transform="translate(0, 0) rotate(0) scale(1, 1)"/>
<text id="svg-corner-3-radius-r-text" class="dim-textclip-db-R dim-text2" 
x="209.2" y="209.2" 
transform="translate(0, 418.4) rotate(45 209.2,-209.2) scale(1, -1)">R100</text>                    </g>
                                        <g id="svg-corner-rest-4" style="display:none;">
                        
<line id="svg-corner4-left-ln" class="dim-line" x1="0" x2="30" marker-start="url(#DimPoint1)" transform="translate(0,-48) scale(1, -1)"/>
<line id="svg-corner4-right-ln" class="dim-line" x1="170" x2="200" marker-end="url(#DimPoint2)" transform="translate(0,-48) scale(1, -1)"/>
<text id="svg-corner4-x-text-ln" class="dim-textclip-db-H dim-text" x="100" transform="translate(0,-52) scale(1, -1)">200</text>
<line id="svg-corner4-left-ln1" class="dim-ln" x1="200" x2="230" marker-start="url(#DimPoint1)" transform="translate(0,-48) scale(1, -1)"/>
<line id="svg-corner4-right-ln1" class="dim-ln" x1="270" x2="300" marker-end="url(#DimPoint2)" transform="translate(0,-48) scale(1, -1)"/>
<text id="svg-corner4-x-text-ln1" class="dim-textclip-db-H dim-text2" x="250" transform="translate(0,-67) scale(1, -1)">100</text>
<line id="svg-corner4-bottom-ln" class="dim-line" x1="100" x2="130" marker-start="url(#DimPoint1)" transform="translate(348, 0) rotate(90) scale(1, -1)"/>
<line id="svg-corner4-top-ln" class="dim-line" x1="270" x2="300" marker-end="url(#DimPoint2)" transform="translate(348, 0) rotate(90) scale(1, -1)"/>
<text id="svg-corner4-y-text-ln" class="dim-textclip-db-V dim-text" x="200" transform="translate(352, 0) rotate(90) scale(1, -1)">200</text>
<line id="svg-corner4-bottom-ln1" class="dim-ln" x1="0" x2="30" marker-start="url(#DimPoint1)" transform="translate(348, 0) rotate(90) scale(1, -1)"/>
<line id="svg-corner4-top-ln1" class="dim-ln" x1="70" x2="100" marker-end="url(#DimPoint2)" transform="translate(348, 0) rotate(90) scale(1, -1)"/>
<text id="svg-corner4-y-text-ln1" class="dim-textclip-db-V dim-text2" x="50" transform="translate(368, 0) rotate(90) scale(1, -1)">100</text> <circle class="helping_circle" vector-effect="non-scaling-stroke" cx="200" cy="100" r="100"/> <line class="helping_circle" vector-effect="non-scaling-stroke" x1="200" x2="300" y1="100" y2="100"></line><line class="helping_circle" vector-effect="non-scaling-stroke" x1="200" x2="200" y1="100" y2="0"></line>
<line id="svg-corner-4-radius-r" class="dim-arrow-R dim-ln1" 
x1="229.7" y1="70.3" x2="263.6" y2="36.4" 
marker-end="url(#DimPointRadius)" transform="translate(0, 0) rotate(0) scale(1, 1)"/>
<text id="svg-corner-4-radius-r-text" class="dim-textclip-db-R dim-text2" 
x="209.2" y="90.8" 
transform="translate(0, 181.6) rotate(-45 209.2,-90.8) scale(1, -1)">R100</text>                    </g>
                    
                                                                                                                                                             </g>
                <g id="svg-band-marking" style="display:none;">
                    <g id="svg-band-marking-top" style="">
                        <line
                                class="mark-band-2"
                                x1="0" x2="80"
                                transform="translate(0,348) scale(1, -1)"/>
                        <line
                                class="mark-band-2"
                                x1="220" x2="300"
                                transform="translate(0,348) scale(1, -1)"/>
                        <text class="dim-text" x="150"
                              transform="translate(0,348) scale(1, -1)">2                            мм                        </text>
                    </g>
                    <g id="svg-band-marking-bottom" style="">
                        <line
                                class="mark-band-2"
                                x1="0" x2="80"
                                transform="translate(0,-48) scale(1, -1)"/>
                        <line
                                class="mark-band-2"
                                x1="220" x2="300"
                                transform="translate(0,-48) scale(1, -1)"/>
                        <text class="dim-text" x="150"
                              transform="translate(0,-48) scale(1, -1)">2                            мм                        </text>
                    </g>
                    <g id="svg-band-marking-left" style="">
                        <line
                                class="mark-band-2"
                                x1="0" x2="80"
                                transform="translate(-48, 0) rotate(90) scale(1, -1)"/>
                        <line
                                class="mark-band-2"
                                x1="220" x2="300"
                                transform="translate(-48, 0) rotate(90) scale(1, -1)"/>
                        <text class="dim-text" x="150"
                              transform="translate(-48, 0) rotate(90) scale(1, -1)">2                            мм                        </text>
                    </g>
                    <g id="svg-band-marking-right" style="">
                        <line
                                class="mark-band-2"
                                x1="0" x2="80"
                                transform="translate(348, 0) rotate(90) scale(1, -1)"/>
                        <line
                                class="mark-band-2"
                                x1="220" x2="300"
                                transform="translate(348, 0) rotate(90) scale(1, -1)"/>
                        <text class="dim-text" x="150"
                              transform="translate(348, 0) rotate(90) scale(1, -1)">2                            мм                        </text>
                    </g>
                </g>
                <g id="svg-info" transform="scale(1,-1)">
                    <text x="-38"
                          y="38" id="svg-info-text"></text>
                </g>
                                            </g>

                    </svg>
        