        <svg id="svg-draft"
                              style="border: '1px solid transparent'"
                         width="100%" height="100%" errmsg=""
             viewBox="-130 106 760 412"
             version="1.1" baseProfile="full" xmlns="http://www.w3.org/2000/svg" xmlns:xlink="http://www.w3.org/1999/xlink" xmlns:ev="http://www.w3.org/2001/xml-events">
            <title>500 x 200 x 18</title>
                        <defs>
                                                                                <clipPath id="svg-side-1-contour-clip">
                    <use xlink:href="#svg-side-1-contour"/>
                </clipPath>
                <clipPath id="svg-side-2-contour-clip">
                    <use xlink:href="#svg-side-2-contour"/>
                </clipPath>
                <clipPath id="svg-side-3-contour-clip">
                    <use xlink:href="#svg-side-3-contour"/>
                </clipPath>
                <clipPath id="svg-side-4-contour-clip">
                    <use xlink:href="#svg-side-4-contour"/>
                </clipPath>
                <clipPath id="svg-side-5-contour-clip">
                    <use xlink:href="#svg-side-5-contour"/>
                </clipPath>
                <clipPath id="svg-side-6-contour-clip">
                    <use xlink:href="#svg-side-1-contour"/>
                </clipPath>
                <clipPath id="svg-side-7-contour-clip">
                    <use xlink:href="#svg-side-1-contour"/>
                </clipPath>
                <clipPath id="svg-side-8-contour-clip">
                    <use xlink:href="#svg-side-1-contour"/>
                </clipPath>
                <clipPath id="svg-side-9-contour-clip">
                    <use xlink:href="#svg-side-1-contour"/>
                </clipPath>
                <clipPath id="svg-side-10-contour-clip">
                    <use xlink:href="#svg-side-1-contour"/>
                </clipPath>
                <marker id="arrowlessDimPoint1" viewBox="-2 -12 29 24" markerWidth="44" markerHeight="36" orient="auto" markerUnits="userSpaceOnUse">
                    <path stroke="black" d="M0,-10 L0,10"/>
                </marker>
                <marker id="arrowlessDimPoint2" viewBox="-27 -12 29 24" markerWidth="44" markerHeight="36" orient="auto" markerUnits="userSpaceOnUse">
                    <path stroke="black" d="M0,-10 L0,10"/>
                </marker>
                <marker id="DimPoint1" viewBox="-2 -12 29 24" markerWidth="44" markerHeight="36" orient="auto" markerUnits="userSpaceOnUse">
                    <path stroke="black" d="M0,0 L20,-4 16,0 20,4 z M0,-10 L0,10 M0,0 L27,0"/>
                </marker>
                <marker id="DimPoint2" viewBox="-27 -12 29 24" markerWidth="44" markerHeight="36" orient="auto" markerUnits="userSpaceOnUse">
                    <path stroke="black" d="M0,0 L-20,-4 -16,0 -20,4 z M0,-10 L0,10 M0,0 L-27,0"/>
                </marker>
                <marker id="DimPointRed" viewBox="-27 -12 29 24" markerWidth="44" markerHeight="36" orient="auto" markerUnits="userSpaceOnUse">
                    <path fill="#ff0000" stroke="none" d="M-2,0 L-12,-4 -9,0 -12,4 z"/>
                </marker>
                <marker id="smallDimPoint1" viewBox="-2 -12 29 24" markerWidth="8" markerHeight="18" orient="auto" markerUnits="userSpaceOnUse">
                    <path stroke="gray" d="M0,0 L20,-4 16,0 20,4 z M0,-10 L0,10 M0,0 L27,0"/>
                </marker>
                <marker id="smallDimPoint2" viewBox="-27 -12 29 24" markerWidth="8" markerHeight="18" orient="auto" markerUnits="userSpaceOnUse">
                    <path stroke="gray" d="M0,0 L-20,-4 -16,0 -20,4 z M0,-10 L0,10 M0,0 L-27,0"/>
                </marker>
                <marker id="DimPointAxis" refX="-6" refY="0" viewBox="-27 -12 29 24" markerWidth="44" markerHeight="36" orient="auto" markerUnits="userSpaceOnUse">
                    <path stroke="gray" stroke-width="0.03em" fill="gray" d="M0,0 L-20,-4 -16,0 -20,4 z"/>
                </marker>
                <marker id="DimPointAxisBlue" refX="-6" refY="0" viewBox="-27 -12 29 24" markerWidth="44" markerHeight="36" orient="auto" markerUnits="userSpaceOnUse">
                    <path stroke="none" fill="blue" d="M0,0 L-20,-4 -16,0 -20,4 z"/>
                </marker>
                <marker id="DimPointRadius" refX="-5" refY="0" viewBox="-27 -12 29 24" markerWidth="44" markerHeight="36" orient="auto" markerUnits="userSpaceOnUse">
                    <path stroke="black" stroke-width="0.03em" fill="black" d="M0,0 L-20,-4 -16,0 -20,4 z"/>
                </marker>
                <pattern id="bevel_pattern" width="15" height="15" patternUnits="userSpaceOnUse">
                    <line stroke="black" x1="0" y1="15" x2="15" y2="0"></line>
                    <line stroke="black" x1="0" y1="0" x2="15" y2="15"></line>
                </pattern>
                <pattern id="bevel_pattern5" width="15" height="15" patternUnits="userSpaceOnUse">
                    <rect x="0" y="0" width="15" height="15" fill="green" />
                    <line stroke="black" x1="0" y1="15" x2="15" y2="0"></line>
                    <line stroke="black" x1="0" y1="0" x2="15" y2="15"></line>
                </pattern>
                <pattern id="bevel_pattern8" width="15" height="15" patternUnits="userSpaceOnUse">
                    <rect x="0" y="0" width="15" height="15" fill="#FA6D08" />
                    <line stroke="black" x1="0" y1="15" x2="15" y2="0"></line>
                    <line stroke="black" x1="0" y1="0" x2="15" y2="15"></line>
                </pattern>
                <pattern id="bevel_pattern10" width="15" height="15" patternUnits="userSpaceOnUse">
                    <rect x="0" y="0" width="15" height="15" fill="lightblue" />
                    <line stroke="black" x1="0" y1="15" x2="15" y2="0"></line>
                    <line stroke="black" x1="0" y1="0" x2="15" y2="15"></line>
                </pattern>
                <pattern id="bevel_pattern_back" width="15" height="15" patternUnits="userSpaceOnUse">
                    <line stroke="#ffffee" x1="0" y1="15" x2="15" y2="0" class="bevel_pattern"></line>
                    <line stroke="#ffffee" x1="0" y1="0" x2="15" y2="15" class="bevel_pattern"></line>
                </pattern>
                <pattern id="bevel_pattern_back5" width="15" height="15" patternUnits="userSpaceOnUse">
                    <rect x="0" y="0" width="15" height="15" fill="green" />
                    <line stroke="#ffffee" x1="0" y1="15" x2="15" y2="0" class="bevel_pattern5"></line>
                    <line stroke="#ffffee" x1="0" y1="0" x2="15" y2="15" class="bevel_pattern5"></line>
                </pattern>
                <pattern id="bevel_pattern_back8" width="15" height="15" patternUnits="userSpaceOnUse">
                    <rect x="0" y="0" width="15" height="15" fill="#FA6D08" />
                    <line stroke="#ffffee" x1="0" y1="15" x2="15" y2="0" class="bevel_pattern8"></line>
                    <line stroke="#ffffee" x1="0" y1="0" x2="15" y2="15" class="bevel_pattern8"></line>
                </pattern>
                <pattern id="bevel_pattern_back10" width="15" height="15" patternUnits="userSpaceOnUse">
                    <rect x="0" y="0" width="15" height="15" fill="lightblue" />
                    <line stroke="#ffffee" x1="0" y1="15" x2="15" y2="0" class="bevel_pattern10"></line>
                    <line stroke="#ffffee" x1="0" y1="0" x2="15" y2="15" class="bevel_pattern10"></line>
                </pattern>
                <pattern id="bevel_pattern-faska" width="15" height="15" patternUnits="userSpaceOnUse">
                    <line stroke="black" x1="0" y1="15" x2="15" y2="0"></line>
                    <line stroke="black" x1="0" y1="0" x2="15" y2="15"></line>
                </pattern>
                <pattern id="bevel_pattern_back-faska" width="15" height="15" patternUnits="userSpaceOnUse">
                    <line stroke="black" x1="0" y1="15" x2="15" y2="0" class="bevel_pattern"></line>
                    <line stroke="black" x1="0" y1="0" x2="15" y2="15" class="bevel_pattern"></line>
                </pattern>
                <pattern id="bevel_pattern-radius" width="15" height="15" patternUnits="userSpaceOnUse">
                    <line stroke="black" x1="0" y1="15" x2="15" y2="0"></line>
                </pattern>
                <pattern id="bevel_pattern_back-radius" width="15" height="15" patternUnits="userSpaceOnUse">
                    <line stroke="black" x1="0" y1="15" x2="15" y2="0" class="bevel_pattern"></line>
                </pattern>
                <pattern id="rounded_pattern" width="15" height="15" patternUnits="userSpaceOnUse">
                    <line stroke="black" x1="0" y1="15" x2="15" y2="0"></line>
                </pattern>
            </defs>
                        <g id="svg-detail" transform="translate(0,412) scale(1,-1)">
                                <g id="svg-side-1">
                                            <path id="svg-side-1-contour" fill="none" stroke="black"
                              stroke-width="8" d=" M 170,0 A 170,170 0 0 0 0,170 L 0,200 L 500,200 L 500,170 A 170,170 0 0 0 330,0 L 170,0"/>
                                        <g id="svg-trapezoid-1" clip-path="url(#svg-side-1-contour-clip)"/><g id="svg-corner-1-atop" class="corner_atop"><path id="svg-corner-1-interaction-area" fill="#FFFFFF" d=" M 170,0 A 170,170 0 0 0 0,170 L 0,0 Z "></path><path id="svg-corner-1-edge-contour"  fill="white" stroke="black" stroke-width="6px"  d=" M 170,0 A 170,170 0 0 0 0,170"> </path></g><g id="svg-corner-4-atop" class="corner_atop"><path id="svg-corner-4-interaction-area" fill="#FFFFFF" d=" M 500,170 A 170,170 0 0 0 330,0 L 500,0 Z "></path><path id="svg-corner-4-edge-contour"  fill="white" stroke="black" stroke-width="6px"  d=" M 500,170 A 170,170 0 0 0 330,0"> </path></g><g id="svg-rectangles-1" hidden="true" style="display:none;" clip-path="url(#svg-side-1-contour-clip)"><rect x="168" y="0" width="80" height="150" stroke="red" stroke-dasharray="2 3" fill="none"/><rect x="168" y="48" width="80" height="150" stroke="red" stroke-dasharray="2 3" fill="none"/><rect x="168" y="18" width="80" height="150" stroke="red" stroke-dasharray="2 3" fill="none"/><rect x="168" y="0" width="150" height="80" stroke="red" stroke-dasharray="2 3" fill="none"/><rect x="168" y="84" width="150" height="80" stroke="red" stroke-dasharray="2 3" fill="none"/><rect x="168" y="4" width="150" height="80" stroke="red" stroke-dasharray="2 3" fill="none"/><rect x="168" y="88" width="150" height="80" stroke="red" stroke-dasharray="2 3" fill="none"/><rect x="84" y="84" width="150" height="80" stroke="red" stroke-dasharray="2 3" fill="none"/><rect x="84" y="88" width="150" height="80" stroke="red" stroke-dasharray="2 3" fill="none"/><rect x="178" y="0" width="150" height="80" stroke="red" stroke-dasharray="2 3" fill="none"/><rect x="178" y="84" width="150" height="80" stroke="red" stroke-dasharray="2 3" fill="none"/><rect x="178" y="4" width="150" height="80" stroke="red" stroke-dasharray="2 3" fill="none"/><rect x="178" y="88" width="150" height="80" stroke="red" stroke-dasharray="2 3" fill="none"/><rect x="168" y="48" width="80" height="150" stroke="red" stroke-dasharray="2 3" fill="none"/><rect x="168" y="118" width="150" height="80" stroke="red" stroke-dasharray="2 3" fill="none"/><rect x="168" y="84" width="150" height="80" stroke="red" stroke-dasharray="2 3" fill="none"/><rect x="168" y="88" width="150" height="80" stroke="red" stroke-dasharray="2 3" fill="none"/><rect x="84" y="118" width="150" height="80" stroke="red" stroke-dasharray="2 3" fill="none"/><rect x="84" y="84" width="150" height="80" stroke="red" stroke-dasharray="2 3" fill="none"/><rect x="84" y="88" width="150" height="80" stroke="red" stroke-dasharray="2 3" fill="none"/><rect x="178" y="118" width="150" height="80" stroke="red" stroke-dasharray="2 3" fill="none"/><rect x="178" y="84" width="150" height="80" stroke="red" stroke-dasharray="2 3" fill="none"/><rect x="178" y="88" width="150" height="80" stroke="red" stroke-dasharray="2 3" fill="none"/><rect x="248" y="0" width="80" height="150" stroke="red" stroke-dasharray="2 3" fill="none"/><rect x="248" y="48" width="80" height="150" stroke="red" stroke-dasharray="2 3" fill="none"/><rect x="248" y="18" width="80" height="150" stroke="red" stroke-dasharray="2 3" fill="none"/><rect x="178" y="0" width="150" height="80" stroke="red" stroke-dasharray="2 3" fill="none"/><rect x="178" y="84" width="150" height="80" stroke="red" stroke-dasharray="2 3" fill="none"/><rect x="178" y="4" width="150" height="80" stroke="red" stroke-dasharray="2 3" fill="none"/><rect x="178" y="88" width="150" height="80" stroke="red" stroke-dasharray="2 3" fill="none"/><rect x="262" y="84" width="150" height="80" stroke="red" stroke-dasharray="2 3" fill="none"/><rect x="262" y="88" width="150" height="80" stroke="red" stroke-dasharray="2 3" fill="none"/><rect x="248" y="48" width="80" height="150" stroke="red" stroke-dasharray="2 3" fill="none"/><rect x="178" y="118" width="150" height="80" stroke="red" stroke-dasharray="2 3" fill="none"/><rect x="178" y="84" width="150" height="80" stroke="red" stroke-dasharray="2 3" fill="none"/><rect x="178" y="88" width="150" height="80" stroke="red" stroke-dasharray="2 3" fill="none"/><rect x="262" y="118" width="150" height="80" stroke="red" stroke-dasharray="2 3" fill="none"/><rect x="262" y="84" width="150" height="80" stroke="red" stroke-dasharray="2 3" fill="none"/><rect x="262" y="88" width="150" height="80" stroke="red" stroke-dasharray="2 3" fill="none"/></g>                    <g class="xy-pos">
                        <line class="x-line"/>
                        <line class="y-line"/>
                        <text class="x-text"
                              transform="translate(0, -48) scale(1, -1)"/>
                        <text class="y-text"
                              transform="translate(-48, 0) scale(1, -1) rotate(270)"/>
                                            </g>
                    <g id="svg-contour-bands" clip-path="url(#svg-side-1-contour-clip)"
                       style="">
                        <line x1="0" y1="234" x2="500"
                              y2="234"
                              class="edge05f edge05s mark-band"/>
                        <line x1="0" y1="-34" x2="500"
                              y2="-34"
                              class="edge2f edge2s mark-band-2"/>
                        <line x1="-34" y1="0" x2="-34"
                              y2="200"
                              class="edge2f edge2s mark-band-2"/>
                        <line x1="534" y1="0"
                              x2="534" y2="200"
                              class="edge2f edge2s mark-band-2"/>
                    </g>
                </g>
                                                                                    <g id="svg-side-2" transform="translate(-10, 0) scale(-1,1)">
                                                        <path id="svg-side-2-contour"
                                 fill="white" stroke="black" stroke-width="5px"                                   class="svg_side_left edge2f edge2s"
                                                                d="M 0 170 L 18 170 V 200 L 0 200 z"
                                                              />
                                                                                                                                                                                    <path
                                                                                fill="white"
                                            stroke="black"
                                                                                  d="M 0 170 L 18 170 L 18 0 L 0 0 z"/>
                                                                                                                                                            
                            
                                                                                    <g class="xy-pos">
                                <line class="x-line"/>
                                <line class="y-line"/>
                                <text class="x-text"
                                      transform="translate(0, -48) scale(-1, -1)"/>
                                <text class="y-text"
                                      transform="translate(-58, 0) scale(-1, -1) rotate(270)"/>
                            </g>
                                                    </g>
                                                        <g id="svg-side-3" transform="translate(0, 210)">
                                                                        <path id="svg-side-3-contour"
                                         fill="white" stroke="black" stroke-width="5px"                                           class="svg_side_top edge05f edge05s"
                                          d="M 0 0 L 0 18 H 500 L 500 0 z"
                                                                                  style="transform: translate(px,0)"/>
                                                                                                                                                                                                                                                                                    
                                                                                    <g class="xy-pos">
                                <line class="x-line"/>
                                <line class="y-line"/>
                                <text class="x-text"
                                      transform="translate(0, -58) scale(1, -1)"/>
                                <text class="y-text"
                                      transform="translate(-48, 0) scale(1, -1) rotate(270)"/>
                            </g>

                                                    </g>
                                                    <g id="svg-side-4" transform="translate(510, 0)">
                                                                    <path id="svg-side-4-contour"
                                         fill="white" stroke="black" stroke-width="5px"                                           class="svg_side_right edge2f edge2s"
                                          d="M 0 170 L 18 170 V 200 L 0 200 z"
                                                                              />
                                                                
                                                                                                                                                                                            <path
                                                                                                                            fill="white"
                                            stroke="black"
                                                                                                                                  d="M 0 170 L 18 170 L 18 0 L 0 0 z"/>
                                                                                                                            
                                                                                    <g class="xy-pos">
                                <line class="x-line"/>
                                <line class="y-line"/>
                                <text class="x-text"
                                      transform="translate(0, -48) scale(1, -1)"/>
                                <text class="y-text"
                                      transform="translate(-58, 0) scale(1, -1) rotate(270)"/>
                            </g>

                                                    </g>
                                                            <g id="svg-side-5" transform="translate(0, -10) scale(1,-1)">
                                                                    <path id="svg-side-5-contour"
                                                                                   fill="white" stroke="black" stroke-width="5px"                                           class="svg_side_bottom edge2f edge2s"
                                          d="M 170 0 L 170 18 H 330 L 330 0 z"/>
                                                                        
                                                                                                                                                            <path
                                                                                    fill="#EEEEEE"
                                            stroke="black"
                                                                                  d="M 170 0 L 170 18 L 0 18 L 0 0 z"/>
                                                                                                    <path
                                                                                    fill="#EEEEEE"
                                            stroke="black"
                                                                                  d="M 330 0 L 330 18 L 500 18 L 500 0 z"/>
                                                                                                                            
                            
                                                        <g class="xy-pos">
                                <line class="x-line"/>
                                <line class="y-line"/>
                                <text class="x-text"
                                      transform="translate(0, -58)"/>
                                <text class="y-text"
                                      transform="translate(-48, 0) rotate(270)"/>
                            </g>

                                                    </g>
                        <g id="svg-side-6">
                                <!--                                    <path id="svg-side-6-contour"-->
<!--                                          fill="--><!--;"-->
<!--                                          stroke="--><!--;"-->
<!--                                          stroke-width="--><!--;"-->
<!--                                          class="--><!--"-->
<!--                                          d="--><!--"/>-->
                                                                                        <g class="xy-pos">
                                <line class="x-line"/>
                                <line class="y-line"/>
                                <text class="x-text"
                                      transform="translate(0, -48) scale(1, -1)"/>
                                <text class="y-text"
                                      transform="translate(-48, 0) scale(1, -1) rotate(270)"/>
                            </g>
                        </g>
                                                <g id="svg-grain" clip-path="url(#svg-side-1-contour-clip)"
                           style="display:none;">
                                                                                                <path stroke="black"
                                          stroke-width="8"
                                          fill="none"
                                          opacity="1"
                                          stroke-opacity="1"
                                          d="M 225 90 l 50 0"/>
                                    <path stroke="black"
                                          stroke-width="8"
                                          fill="none"
                                          opacity="1"
                                          stroke-opacity="1"
                                          d="M 225 100 l 50 0"/>
                                    <path stroke="black"
                                          stroke-width="8"
                                          fill="none"
                                          opacity="1"
                                          stroke-opacity="1"
                                          d="M 225 110 l 50 0"/>
                                                                                        </g>
                                        <g class="svg-clipping-rest"/><g class='svg-clipping'></g>                    
                <g id="svg-cuts">
                                    </g>
                <g id="svg-dimentions-sbp">
                                    </g>



                  <g id="svg-dimensions" style="">
                    <g class='svg-clipping-dim'></g>
                    
                    
                                        <g id="svg-corner-rest-1" style="display:none;">
                        
<line id="svg-corner1-left-ln" class="dim-line" x1="170" x2="265" marker-start="url(#DimPoint1)" transform="translate(0,-48) scale(1, -1)"/>
<line id="svg-corner1-right-ln" class="dim-line" x1="405" x2="500" marker-end="url(#DimPoint2)" transform="translate(0,-48) scale(1, -1)"/>
<text id="svg-corner1-x-text-ln" class="dim-textclip-db-H dim-text" x="335" transform="translate(0,-52) scale(1, -1)">330</text>
<line id="svg-corner1-left-ln1" class="dim-ln" x1="0" x2="30" marker-start="url(#DimPoint1)" transform="translate(0,-48) scale(1, -1)"/>
<line id="svg-corner1-right-ln1" class="dim-ln" x1="140" x2="170" marker-end="url(#DimPoint2)" transform="translate(0,-48) scale(1, -1)"/>
<text id="svg-corner1-x-text-ln1" class="dim-textclip-db-H dim-text2" x="85" transform="translate(0,-52) scale(1, -1)">170</text>
<line id="svg-corner1-bottom-ln" class="dim-line" x1="170" x2="200" marker-start="url(#arrowlessDimPoint1)" transform="translate(-48, 0) rotate(90) scale(1, -1)"/>
<line id="svg-corner1-top-ln" class="dim-line" x1="170" x2="200" marker-end="url(#arrowlessDimPoint2)" transform="translate(-48, 0) rotate(90) scale(1, -1)"/>
<text id="svg-corner1-y-text-ln" class="dim-textclip-db-V dim-text2" x="185" transform="translate(-74, 0) rotate(90) scale(1, -1)">30</text>
<line id="svg-corner1-bottom-ln1" class="dim-ln" x1="0" x2="30" marker-start="url(#DimPoint1)" transform="translate(-48, 0) rotate(90) scale(1, -1)"/>
<line id="svg-corner1-top-ln1" class="dim-ln" x1="140" x2="170" marker-end="url(#DimPoint2)" transform="translate(-48, 0) rotate(90) scale(1, -1)"/>
<text id="svg-corner1-y-text-ln1" class="dim-textclip-db-V dim-text2" x="85" transform="translate(-48, 0) rotate(90) scale(1, -1)">170</text> <circle class="helping_circle" vector-effect="non-scaling-stroke" cx="170" cy="170" r="170"/> <line class="helping_circle" vector-effect="non-scaling-stroke" x1="170" x2="170" y1="170" y2="0"></line><line class="helping_circle" vector-effect="non-scaling-stroke" x1="170" x2="0" y1="170" y2="170"></line>
<line id="svg-corner-1-radius-r" class="dim-arrow-R dim-ln1" 
x1="136.1" y1="136.1" x2="56.9" y2="56.9" 
marker-end="url(#DimPointRadius)" transform="translate(0, 0) rotate(0) scale(1, 1)"/>
<text id="svg-corner-1-radius-r-text" class="dim-textclip-db-R dim-text2" 
x="156.6" y="156.6" 
transform="translate(0, 313.1) rotate(-315 156.6,-156.6) scale(1, -1)">R170</text>                    </g>
                                        <g id="svg-corner-rest-4" style="display:none;">
                        
<line id="svg-corner4-left-ln" class="dim-line" x1="0" x2="95" marker-start="url(#DimPoint1)" transform="translate(0,-48) scale(1, -1)"/>
<line id="svg-corner4-right-ln" class="dim-line" x1="235" x2="330" marker-end="url(#DimPoint2)" transform="translate(0,-48) scale(1, -1)"/>
<text id="svg-corner4-x-text-ln" class="dim-textclip-db-H dim-text" x="165" transform="translate(0,-52) scale(1, -1)">330</text>
<line id="svg-corner4-left-ln1" class="dim-ln" x1="330" x2="360" marker-start="url(#DimPoint1)" transform="translate(0,-48) scale(1, -1)"/>
<line id="svg-corner4-right-ln1" class="dim-ln" x1="470" x2="500" marker-end="url(#DimPoint2)" transform="translate(0,-48) scale(1, -1)"/>
<text id="svg-corner4-x-text-ln1" class="dim-textclip-db-H dim-text2" x="415" transform="translate(0,-52) scale(1, -1)">170</text>
<line id="svg-corner4-bottom-ln" class="dim-line" x1="170" x2="200" marker-start="url(#arrowlessDimPoint1)" transform="translate(548, 0) rotate(90) scale(1, -1)"/>
<line id="svg-corner4-top-ln" class="dim-line" x1="170" x2="200" marker-end="url(#arrowlessDimPoint2)" transform="translate(548, 0) rotate(90) scale(1, -1)"/>
<text id="svg-corner4-y-text-ln" class="dim-textclip-db-V dim-text2" x="185" transform="translate(578, 0) rotate(90) scale(1, -1)">30</text>
<line id="svg-corner4-bottom-ln1" class="dim-ln" x1="0" x2="30" marker-start="url(#DimPoint1)" transform="translate(548, 0) rotate(90) scale(1, -1)"/>
<line id="svg-corner4-top-ln1" class="dim-ln" x1="140" x2="170" marker-end="url(#DimPoint2)" transform="translate(548, 0) rotate(90) scale(1, -1)"/>
<text id="svg-corner4-y-text-ln1" class="dim-textclip-db-V dim-text2" x="85" transform="translate(552, 0) rotate(90) scale(1, -1)">170</text> <circle class="helping_circle" vector-effect="non-scaling-stroke" cx="330" cy="170" r="170"/> <line class="helping_circle" vector-effect="non-scaling-stroke" x1="330" x2="500" y1="170" y2="170"></line><line class="helping_circle" vector-effect="non-scaling-stroke" x1="330" x2="330" y1="170" y2="0"></line>
<line id="svg-corner-4-radius-r" class="dim-arrow-R dim-ln1" 
x1="363.9" y1="136.1" x2="443.1" y2="56.9" 
marker-end="url(#DimPointRadius)" transform="translate(0, 0) rotate(0) scale(1, 1)"/>
<text id="svg-corner-4-radius-r-text" class="dim-textclip-db-R dim-text2" 
x="343.4" y="156.6" 
transform="translate(0, 313.1) rotate(-45 343.4,-156.6) scale(1, -1)">R170</text>                    </g>
                    
                                                                                                                                                             </g>
                <g id="svg-band-marking" style="display:none;">
                    <g id="svg-band-marking-top" style="">
                        <line
                                class="mark-band"
                                x1="0" x2="180"
                                transform="translate(0,248) scale(1, -1)"/>
                        <line
                                class="mark-band"
                                x1="320" x2="500"
                                transform="translate(0,248) scale(1, -1)"/>
                        <text class="dim-text" x="250"
                              transform="translate(0,248) scale(1, -1)">0.4                            мм                        </text>
                    </g>
                    <g id="svg-band-marking-bottom" style="">
                        <line
                                class="mark-band-2"
                                x1="0" x2="180"
                                transform="translate(0,-48) scale(1, -1)"/>
                        <line
                                class="mark-band-2"
                                x1="320" x2="500"
                                transform="translate(0,-48) scale(1, -1)"/>
                        <text class="dim-text" x="250"
                              transform="translate(0,-48) scale(1, -1)">2                            мм                        </text>
                    </g>
                    <g id="svg-band-marking-left" style="">
                        <line
                                class="mark-band-2"
                                x1="0" x2="30"
                                transform="translate(-48, 0) rotate(90) scale(1, -1)"/>
                        <line
                                class="mark-band-2"
                                x1="170" x2="200"
                                transform="translate(-48, 0) rotate(90) scale(1, -1)"/>
                        <text class="dim-text" x="100"
                              transform="translate(-48, 0) rotate(90) scale(1, -1)">2                            мм                        </text>
                    </g>
                    <g id="svg-band-marking-right" style="">
                        <line
                                class="mark-band-2"
                                x1="0" x2="30"
                                transform="translate(548, 0) rotate(90) scale(1, -1)"/>
                        <line
                                class="mark-band-2"
                                x1="170" x2="200"
                                transform="translate(548, 0) rotate(90) scale(1, -1)"/>
                        <text class="dim-text" x="100"
                              transform="translate(548, 0) rotate(90) scale(1, -1)">2                            мм                        </text>
                    </g>
                </g>
                <g id="svg-info" transform="scale(1,-1)">
                    <text x="-38"
                          y="38" id="svg-info-text"></text>
                </g>
                                            </g>

                    </svg>
        